<?xml version="1.0" standalone="no"?>
<!DOCTYPE svg PUBLIC "-//W3C//DTD SVG 20010904//EN"
 "http://www.w3.org/TR/2001/REC-SVG-20010904/DTD/svg10.dtd">
<svg version="1.0" xmlns="http://www.w3.org/2000/svg"
 width="400.000000pt" height="286.000000pt" viewBox="0 0 400.000000 286.000000"
 preserveAspectRatio="xMidYMid meet">

<g transform="translate(0.000000,286.000000) scale(0.100000,-0.100000)"
fill="#000000" stroke="none">
<path d="M1039 2697 c-157 -59 -187 -148 -160 -482 4 -49 3 -104 -1 -121 -5
-18 -36 -67 -69 -110 -62 -80 -116 -177 -139 -249 -7 -22 -30 -75 -52 -118
-29 -58 -38 -89 -36 -115 3 -38 12 -43 50 -27 29 12 93 -60 193 -217 82 -128
95 -155 95 -192 0 -33 -6 -48 -27 -68 -62 -57 -84 -59 -217 -18 -53 16 -127
32 -164 35 -37 3 -80 8 -97 11 -20 3 -26 1 -19 -6 6 -6 64 -24 130 -40 65 -16
150 -41 187 -55 87 -32 146 -33 184 -2 45 38 110 55 230 61 152 7 219 -6 259
-50 30 -32 36 -34 96 -34 70 0 75 2 175 85 27 22 60 48 73 57 14 10 -20 -4
-75 -29 -120 -56 -180 -62 -220 -22 -28 27 -30 48 -20 169 4 59 2 106 -8 155
l-15 70 -1 -73 c-1 -72 -2 -73 -46 -121 -63 -67 -143 -102 -250 -109 -100 -6
-127 0 -160 36 -47 49 -50 61 -16 73 23 8 31 17 31 36 0 39 -12 53 -124 143
l-105 85 -1 59 c0 32 7 86 16 120 14 55 77 189 104 221 6 7 10 17 9 21 -5 28
5 57 36 108 21 35 35 71 35 91 0 67 9 70 56 24 40 -40 45 -41 91 -37 33 3 70
18 118 46 38 23 74 42 80 42 12 0 64 -106 118 -240 19 -47 47 -114 63 -150 26
-59 29 -77 31 -190 1 -69 5 -133 8 -142 4 -9 2 -25 -4 -37 -18 -33 -12 -58 20
-85 52 -44 113 -31 156 35 16 23 40 54 54 68 94 95 48 295 -124 538 -129 182
-158 253 -162 408 -5 169 -52 264 -158 319 -67 34 -170 45 -228 23z m228 -286
c27 -40 30 -96 8 -128 -13 -18 -13 -26 -3 -42 24 -38 0 -72 -81 -114 -85 -44
-149 -53 -178 -24 -16 16 -15 17 27 17 47 0 148 41 197 80 37 29 13 25 -27 -5
-43 -31 -131 -65 -172 -65 -43 0 -108 39 -108 64 1 27 65 97 84 90 8 -3 17 0
22 7 5 9 2 10 -9 6 -10 -3 -17 -3 -18 1 0 4 -2 19 -3 34 -2 39 -31 66 -54 52
-24 -15 -26 -47 -7 -84 19 -36 11 -55 -10 -26 -39 53 -21 166 26 166 49 0 86
-54 73 -106 -6 -23 -4 -24 39 -24 l45 0 -5 38 c-4 31 0 44 22 70 24 29 33 33
68 30 34 -2 45 -9 64 -37z m-277 -69 c0 -15 -2 -15 -10 -2 -13 20 -13 33 0 25
6 -3 10 -14 10 -23z"/>
<path d="M1160 2371 c-19 -37 -12 -77 16 -89 52 -24 93 33 60 83 -20 30 -61
33 -76 6z"/>
<path d="M1095 2290 c3 -5 10 -10 16 -10 5 0 9 5 9 10 0 6 -7 10 -16 10 -8 0
-12 -4 -9 -10z"/>
<path d="M2257 2573 c-4 -3 -7 -75 -7 -158 0 -166 7 -188 49 -165 19 10 21 20
21 113 l0 102 115 -115 c151 -151 150 -151 150 66 l0 159 -24 3 c-13 2 -28 -2
-32 -10 -5 -7 -9 -56 -9 -108 l0 -95 -108 108 c-100 99 -134 122 -155 100z"/>
<path d="M2702 2548 c-10 -18 -32 -56 -47 -85 l-27 -52 46 -85 47 -86 97 0 98
0 42 85 c23 47 42 90 42 95 0 6 -41 10 -99 10 -77 0 -103 -4 -115 -16 -32 -32
-9 -54 56 -54 34 0 48 -4 48 -14 0 -25 -28 -37 -80 -34 -50 3 -52 4 -78 52
l-27 48 26 47 26 46 65 3 c61 3 65 1 76 -23 9 -20 19 -25 46 -25 l35 0 -26 60
-26 60 -103 0 -102 0 -20 -32z"/>
<path d="M3057 2574 c-4 -4 -7 -31 -7 -61 l0 -53 33 0 32 0 -5 58 c-4 48 -8
57 -25 60 -12 2 -24 0 -28 -4z"/>
<path d="M3164 2567 c-2 -7 -3 -80 -2 -161 4 -205 4 -205 153 -56 l114 114 3
-103 c2 -84 6 -106 20 -114 12 -8 21 -7 32 2 13 11 16 38 16 156 0 79 -3 150
-6 159 -14 36 -50 15 -156 -91 l-108 -108 0 96 c0 60 -4 99 -12 107 -16 16
-47 15 -54 -1z"/>
<path d="M3552 2568 c-19 -19 -15 -26 50 -94 l62 -65 -62 -62 c-43 -44 -61
-68 -57 -79 14 -37 38 -29 102 34 l62 62 65 -62 c68 -65 75 -69 94 -50 22 22
13 43 -43 98 -30 30 -55 59 -55 65 0 6 25 35 55 65 37 36 55 62 53 75 -6 40
-39 29 -102 -34 l-62 -61 -59 60 c-60 60 -81 70 -103 48z"/>
<path d="M3050 2346 c0 -87 11 -113 44 -100 13 5 16 22 16 95 l0 89 -30 0 -30
0 0 -84z"/>
<path d="M3160 1812 c14 -5 60 -12 103 -16 265 -24 499 -145 536 -277 22 -81
0 -141 -80 -213 -109 -98 -287 -154 -514 -163 -458 -17 -792 192 -670 421 32
60 32 80 0 41 -35 -43 -58 -118 -50 -163 38 -205 364 -349 745 -329 288 16
525 128 590 279 88 204 -188 409 -570 424 -69 2 -105 1 -90 -4z"/>
<path d="M3080 1717 c0 -2 -16 -82 -35 -177 -19 -95 -35 -175 -35 -177 0 -2
17 -3 38 -1 l37 3 20 100 21 100 47 3 c60 4 64 -6 45 -114 -8 -46 -13 -86 -10
-89 5 -5 72 -7 72 -2 1 1 9 47 19 102 11 60 15 109 10 121 -10 27 -57 44 -120
44 -27 0 -49 3 -49 8 0 4 4 24 9 45 l9 37 -39 0 c-21 0 -39 -1 -39 -3z"/>
<path d="M2756 1619 c-8 -22 -66 -321 -66 -336 0 -10 11 -13 37 -11 29 2 39 8
41 23 9 63 7 62 81 67 114 8 172 61 175 159 1 41 -3 53 -26 76 -26 26 -34 28
-133 31 -82 3 -106 1 -109 -9z m165 -59 c23 -13 26 -75 5 -102 -16 -21 -58
-38 -97 -38 -33 0 -33 0 -18 87 l11 63 40 0 c21 0 48 -5 59 -10z"/>
<path d="M3365 1608 c-10 -43 -65 -321 -65 -330 0 -4 18 -8 40 -8 35 0 40 3
40 23 0 59 9 67 69 67 80 0 139 31 169 90 24 49 28 86 11 124 -19 40 -66 56
-168 56 -86 0 -91 -1 -96 -22z m164 -48 c26 -13 31 -33 20 -74 -12 -42 -50
-66 -105 -66 -35 0 -36 1 -30 33 3 17 8 51 12 75 6 41 7 42 46 42 22 0 47 -4
57 -10z"/>
<path d="M525 1370 c-10 -11 -32 -24 -49 -29 l-31 -9 31 -1 c29 -1 49 13 68
47 11 18 1 15 -19 -8z"/>
<path d="M382 1308 c-7 -7 -11 -28 -10 -47 l1 -36 4 35 c3 19 9 41 15 47 13
16 6 17 -10 1z"/>
<path d="M382 1190 c0 -19 2 -27 5 -17 2 9 2 25 0 35 -3 9 -5 1 -5 -18z"/>
<path d="M3354 1006 c-5 -13 5 -37 36 -86 5 -8 20 -40 33 -71 21 -47 24 -67
20 -121 -4 -48 -1 -72 11 -97 20 -37 49 -39 54 -3 5 31 13 28 40 -14 13 -20
26 -33 29 -31 3 3 -4 19 -16 35 -11 16 -25 42 -31 58 -11 28 -12 28 -26 10 -8
-11 -14 -30 -14 -43 0 -30 -14 -29 -28 2 -15 32 -15 85 -2 121 8 21 7 32 -5
51 -9 13 -23 42 -30 64 -8 22 -24 54 -36 70 -11 16 -18 36 -15 44 4 12 15 10
58 -10 29 -14 63 -25 74 -25 32 0 114 -60 152 -111 18 -24 48 -78 66 -119 18
-41 39 -77 47 -82 8 -4 30 -14 49 -23 19 -8 46 -24 60 -35 l25 -19 -43 -7
c-23 -4 -45 -11 -48 -16 -8 -13 23 -44 72 -72 52 -29 48 -11 -7 28 -43 30 -40
46 8 46 54 0 27 40 -63 91 -46 27 -55 37 -84 104 -18 41 -46 92 -62 114 -36
49 -141 121 -177 121 -14 0 -39 9 -56 20 -35 23 -83 26 -91 6z"/>
<path d="M3480 911 c0 -5 5 -13 10 -16 6 -3 10 -2 10 4 0 5 -4 13 -10 16 -5 3
-10 2 -10 -4z"/>
<path d="M1215 617 c-22 -13 -321 -17 -365 -5 -24 7 -25 6 -22 -35 l4 -42 193
3 194 3 6 32 c4 18 12 38 17 45 13 15 -1 15 -27 -1z"/>
<path d="M1123 523 c9 -2 25 -2 35 0 9 3 1 5 -18 5 -19 0 -27 -2 -17 -5z"/>
<path d="M2363 503 c-10 -3 -13 -38 -13 -124 0 -112 1 -119 20 -119 19 0 20 7
20 100 0 55 3 100 8 100 4 0 26 -41 48 -92 44 -99 58 -114 96 -105 19 5 33 26
69 107 l44 101 3 -105 c3 -105 3 -106 27 -106 l25 0 0 114 c0 125 -6 140 -57
134 -29 -3 -48 -32 -102 -158 -23 -53 -24 -54 -34 -30 -6 14 -28 62 -48 108
-35 75 -40 82 -66 81 -15 0 -34 -3 -40 -6z"/>
<path d="M3078 489 c-12 -7 -18 -22 -18 -49 0 -47 18 -60 84 -60 64 0 96 -14
96 -43 0 -38 -19 -47 -102 -47 -45 0 -78 -4 -78 -10 0 -6 36 -10 88 -10 105 0
132 13 132 64 0 46 -18 57 -102 65 l-73 6 0 35 0 35 88 3 c48 1 87 7 87 12 0
13 -180 12 -202 -1z"/>
<path d="M3348 489 c-15 -8 -18 -25 -18 -104 0 -112 3 -115 108 -115 56 0 72
-4 87 -20 10 -11 30 -20 44 -20 l26 1 -24 20 c-22 18 -23 21 -7 37 12 14 16
39 16 99 0 107 -7 113 -126 113 -49 0 -97 -5 -106 -11z m180 -21 c15 -15 16
-154 1 -163 -5 -4 -18 0 -28 9 -10 9 -28 16 -42 16 -22 -1 -23 -2 -6 -14 26
-20 21 -26 -21 -26 -54 0 -62 13 -62 97 0 58 3 74 18 82 24 14 125 14 140 -1z"/>
<path d="M3620 405 c0 -129 6 -135 135 -135 57 0 95 4 95 10 0 6 -31 10 -74
10 -110 0 -106 -4 -106 111 0 99 0 99 -25 99 -25 0 -25 0 -25 -95z"/>
<path d="M2760 367 c0 -87 12 -97 114 -97 61 0 78 -3 83 -16 10 -26 -16 -34
-109 -34 -72 0 -88 -3 -88 -15 0 -12 17 -15 96 -15 90 0 130 9 146 34 4 6 8
55 8 109 0 96 0 97 -25 97 -23 0 -24 -3 -27 -67 l-3 -68 -49 -3 c-90 -6 -96
-1 -96 73 0 63 -1 65 -25 65 -24 0 -25 -2 -25 -63z"/>
</g>
</svg>
